<svg width="26" height="26" viewBox="0 0 26 26" fill="none" xmlns="http://www.w3.org/2000/svg">
<g clip-path="url(#clip0_299_3399)">
<path d="M12.9785 1.11719C6.1073 1.11719 0.537109 6.68738 0.537109 13.5586C0.537109 16.6228 1.64556 19.4277 3.48242 21.5958L7.49876 24.7305C9.15215 25.543 11.0119 26 12.9785 26C14.8206 26 16.569 25.5992 18.1418 24.8808C16.746 24.1536 15.7901 22.6938 15.7901 21.0141C15.7901 18.6112 17.745 16.6562 20.148 16.6562C21.8878 16.6562 23.3922 17.6815 24.0903 19.1593C24.9404 17.4759 25.4199 15.5733 25.4199 13.5586C25.4199 6.68738 19.8497 1.11719 12.9785 1.11719Z" fill="#FFBD86"/>
<path d="M15.7902 21.0141C15.7902 18.6112 17.7451 16.6562 20.148 16.6562C21.0032 16.6562 21.8009 16.9048 22.4746 17.332V1.32031C22.4746 1.03985 22.2473 0.8125 21.9668 0.8125H17.041V2.23438C17.041 2.3464 16.9499 2.4375 16.8379 2.4375H9.11914C9.00712 2.4375 8.91602 2.3464 8.91602 2.23438V0.8125H3.99023C3.70977 0.8125 3.48242 1.03985 3.48242 1.32031V21.5958C4.5857 22.898 5.95166 23.9701 7.49881 24.7305H17.8749C16.6255 23.9634 15.7902 22.5846 15.7902 21.0141Z" fill="#22B27F"/>
<path d="M6.14463 1.32031C6.14463 1.03985 6.37198 0.8125 6.65244 0.8125H3.99023C3.70977 0.8125 3.48242 1.03985 3.48242 1.32031V21.5958C4.2513 22.5034 5.1481 23.2987 6.14463 23.9551V1.32031Z" fill="#09A76D"/>
<path d="M15.7902 21.0141C15.7902 18.6112 17.7451 16.6562 20.148 16.6562C20.4225 16.6562 20.6907 16.683 20.9512 16.7317V1.98047C20.9512 1.89632 20.883 1.82812 20.7988 1.82812H17.041V2.23438C17.041 2.3464 16.9499 2.4375 16.8379 2.4375H9.11914C9.00712 2.4375 8.91602 2.3464 8.91602 2.23438V1.82812H5.1582C5.07406 1.82812 5.00586 1.89632 5.00586 1.98047V22.5469C5.00586 22.631 5.07406 22.6992 5.1582 22.6992H16.1293C15.9111 22.1805 15.7902 21.6112 15.7902 21.0141Z" fill="white"/>
<path d="M7.05869 22.5469V1.98047C7.05869 1.89632 7.12689 1.82812 7.21104 1.82812H5.1582C5.07406 1.82812 5.00586 1.89632 5.00586 1.98047V22.5469C5.00586 22.631 5.07406 22.6992 5.1582 22.6992H7.21104C7.12689 22.6992 7.05869 22.631 7.05869 22.5469Z" fill="#F8F6F6"/>
<path d="M15.543 2.4375V2.84883H14.4922C14.2097 2.84883 13.965 3.03215 13.8834 3.30495C13.7647 3.70114 13.3926 3.97785 12.9785 3.97785C12.5644 3.97785 12.1923 3.70114 12.0736 3.305C11.992 3.03215 11.7473 2.84883 11.4649 2.84883H10.4141V2.4375H9.65234V2.97578C9.65234 3.32582 9.93707 3.61055 10.2871 3.61055H11.3726C11.6137 4.27969 12.2612 4.73957 12.9785 4.73957C13.6958 4.73957 14.3433 4.27969 14.5844 3.61055H15.6699C16.02 3.61055 16.3047 3.32582 16.3047 2.97578V2.4375H15.543Z" fill="#9C9C9C"/>
<path d="M8.9732 8.77891C9.84615 8.77891 10.5538 8.07124 10.5538 7.19829C10.5538 6.32534 9.84615 5.61768 8.9732 5.61768C8.10024 5.61768 7.39258 6.32534 7.39258 7.19829C7.39258 8.07124 8.10024 8.77891 8.9732 8.77891Z" fill="#26A6FE"/>
<path d="M8.42979 7.19829C8.42979 6.50706 8.87366 5.91987 9.49177 5.70517C9.32927 5.64875 9.15489 5.61768 8.9732 5.61768C8.10027 5.61768 7.39258 6.32531 7.39258 7.19829C7.39258 8.07122 8.10022 8.77891 8.9732 8.77891C9.15489 8.77891 9.32927 8.74783 9.49177 8.69141C8.87366 8.47671 8.42979 7.88948 8.42979 7.19829Z" fill="#0593FC"/>
<path d="M8.86638 8.05225C8.76893 8.05225 8.67143 8.01508 8.59709 7.94073L7.94358 7.28728C7.79485 7.13854 7.79485 6.89738 7.94358 6.7487C8.09232 6.59991 8.33348 6.59996 8.48217 6.74864L8.86633 7.13281L9.46428 6.53486C9.61302 6.38617 9.85418 6.38617 10.0029 6.53486C10.1516 6.68364 10.1516 6.92475 10.0029 7.07349L9.13562 7.94073C9.06133 8.01508 8.96388 8.05225 8.86638 8.05225Z" fill="white"/>
<path d="M18.5645 6.81738H11.9121C11.7018 6.81738 11.5312 6.64691 11.5312 6.43652C11.5312 6.22614 11.7018 6.05566 11.9121 6.05566H18.5645C18.7748 6.05566 18.9453 6.22614 18.9453 6.43652C18.9453 6.64691 18.7748 6.81738 18.5645 6.81738Z" fill="#9C9C9C"/>
<path d="M16.3809 8.34082H11.9121C11.7018 8.34082 11.5312 8.17035 11.5312 7.95996C11.5312 7.74957 11.7018 7.5791 11.9121 7.5791H16.3809C16.5912 7.5791 16.7617 7.74957 16.7617 7.95996C16.7617 8.17035 16.5912 8.34082 16.3809 8.34082Z" fill="#9C9C9C"/>
<path d="M8.9732 12.8097C9.84615 12.8097 10.5538 12.102 10.5538 11.2291C10.5538 10.3561 9.84615 9.64844 8.9732 9.64844C8.10024 9.64844 7.39258 10.3561 7.39258 11.2291C7.39258 12.102 8.10024 12.8097 8.9732 12.8097Z" fill="#26A6FE"/>
<path d="M8.42979 11.2291C8.42979 10.5378 8.87366 9.95064 9.49177 9.73593C9.32927 9.67952 9.15489 9.64844 8.9732 9.64844C8.10027 9.64844 7.39258 10.3561 7.39258 11.2291C7.39258 12.102 8.10022 12.8097 8.9732 12.8097C9.15489 12.8097 9.32927 12.7786 9.49177 12.7222C8.87366 12.5075 8.42979 11.9202 8.42979 11.2291Z" fill="#0593FC"/>
<path d="M8.86638 12.083C8.76893 12.083 8.67148 12.0458 8.59709 11.9715L7.94358 11.318C7.79485 11.1693 7.79485 10.9281 7.94358 10.7794C8.09232 10.6306 8.33348 10.6307 8.48217 10.7794L8.86633 11.1635L9.46428 10.5656C9.61302 10.4169 9.85418 10.4169 10.0029 10.5657C10.1516 10.7144 10.1516 10.9556 10.0029 11.1043L9.13562 11.9715C9.06133 12.0458 8.96383 12.083 8.86638 12.083Z" fill="white"/>
<path d="M18.5645 10.8481H11.9121C11.7018 10.8481 11.5312 10.6777 11.5312 10.4673C11.5312 10.2569 11.7018 10.0864 11.9121 10.0864H18.5645C18.7748 10.0864 18.9453 10.2569 18.9453 10.4673C18.9453 10.6777 18.7748 10.8481 18.5645 10.8481Z" fill="#9C9C9C"/>
<path d="M16.3809 12.3716H11.9121C11.7018 12.3716 11.5312 12.2011 11.5312 11.9907C11.5312 11.7803 11.7018 11.6099 11.9121 11.6099H16.3809C16.5912 11.6099 16.7617 11.7803 16.7617 11.9907C16.7617 12.2011 16.5912 12.3716 16.3809 12.3716Z" fill="#9C9C9C"/>
<path d="M8.9732 16.8404C9.84615 16.8404 10.5538 16.1328 10.5538 15.2598C10.5538 14.3869 9.84615 13.6792 8.9732 13.6792C8.10024 13.6792 7.39258 14.3869 7.39258 15.2598C7.39258 16.1328 8.10024 16.8404 8.9732 16.8404Z" fill="#26A6FE"/>
<path d="M8.42979 15.2598C8.42979 14.5686 8.87366 13.9814 9.49177 13.7667C9.32927 13.7103 9.15489 13.6792 8.9732 13.6792C8.10027 13.6792 7.39258 14.3868 7.39258 15.2598C7.39258 16.1327 8.10022 16.8404 8.9732 16.8404C9.15489 16.8404 9.32927 16.8093 9.49177 16.7529C8.87366 16.5382 8.42979 15.951 8.42979 15.2598Z" fill="#0593FC"/>
<path d="M8.86638 16.114C8.76893 16.114 8.67148 16.0768 8.59709 16.0025L7.94358 15.349C7.79485 15.2003 7.79485 14.9591 7.94358 14.8104C8.09232 14.6616 8.33348 14.6617 8.48217 14.8104L8.86633 15.1945L9.46428 14.5966C9.61302 14.4479 9.85418 14.4479 10.0029 14.5967C10.1516 14.7454 10.1516 14.9866 10.0029 15.1353L9.13562 16.0025C9.06133 16.0768 8.96383 16.114 8.86638 16.114Z" fill="white"/>
<path d="M17.7747 14.1174H11.9121C11.7018 14.1174 11.5312 14.2879 11.5312 14.4983C11.5312 14.7087 11.7018 14.8792 11.9121 14.8792H17.6188L17.7747 14.1174Z" fill="#9C9C9C"/>
<path d="M17.8869 13.7639L17.7941 13.769L17.2968 16.1992C17.2801 16.2808 17.3769 16.3367 17.4392 16.2814L19.2952 14.6357L19.2549 14.5538L17.8869 13.7639Z" fill="#FFE5C2"/>
<path d="M18.4606 14.0949L17.8869 13.7637L17.7941 13.7688L17.2968 16.199C17.2801 16.2806 17.3769 16.3365 17.4392 16.2812L18.1404 15.6595L18.4606 14.0949Z" fill="#FED2A4"/>
<path d="M14.8574 16.4026H11.9121C11.7018 16.4026 11.5312 16.2321 11.5312 16.0217C11.5312 15.8113 11.7018 15.6409 11.9121 15.6409H14.8574C15.0678 15.6409 15.2383 15.8113 15.2383 16.0217C15.2383 16.2321 15.0678 16.4026 14.8574 16.4026Z" fill="#9C9C9C"/>
<path d="M8.9732 20.8714C9.84615 20.8714 10.5538 20.1638 10.5538 19.2908C10.5538 18.4179 9.84615 17.7102 8.9732 17.7102C8.10024 17.7102 7.39258 18.4179 7.39258 19.2908C7.39258 20.1638 8.10024 20.8714 8.9732 20.8714Z" fill="#D8ECFE"/>
<path d="M8.42979 19.2908C8.42979 18.5996 8.87366 18.0124 9.49177 17.7977C9.32927 17.7413 9.15489 17.7102 8.9732 17.7102C8.10027 17.7102 7.39258 18.4178 7.39258 19.2908C7.39258 20.1638 8.10022 20.8714 8.9732 20.8714C9.15489 20.8714 9.32927 20.8403 9.49177 20.7839C8.87366 20.5692 8.42979 19.982 8.42979 19.2908Z" fill="#B3DAFE"/>
<path d="M16.8693 18.1482H11.9121C11.7018 18.1482 11.5312 18.3187 11.5312 18.5291C11.5312 18.7394 11.7018 18.9099 11.9121 18.9099H16.3334C16.4848 18.6366 16.6649 18.3816 16.8693 18.1482Z" fill="#9C9C9C"/>
<path d="M14.8574 20.4333H11.9121C11.7018 20.4333 11.5312 20.2629 11.5312 20.0525C11.5312 19.8421 11.7018 19.6716 11.9121 19.6716H14.8574C15.0678 19.6716 15.2383 19.8421 15.2383 20.0525C15.2383 20.2629 15.0678 20.4333 14.8574 20.4333Z" fill="#9C9C9C"/>
<path d="M16.8379 2.48828H9.11914C8.97893 2.48828 8.86523 2.37458 8.86523 2.23438V0.253906C8.86523 0.113699 8.97893 0 9.11914 0H16.8379C16.9781 0 17.0918 0.113699 17.0918 0.253906V2.23438C17.0918 2.37458 16.9781 2.48828 16.8379 2.48828Z" fill="#0182FC"/>
<path d="M11.6798 1.47266C11.5396 1.47266 11.4259 1.35896 11.4259 1.21875V0H9.11914C8.97893 0 8.86523 0.113699 8.86523 0.253906V2.23438C8.86523 2.37458 8.97893 2.48828 9.11914 2.48828H16.8379C16.9781 2.48828 17.0918 2.37458 17.0918 2.23438V1.47266H11.6798Z" fill="#0172FB"/>
<path d="M25.2463 3.46116L24.4958 3.02785C24.2885 2.90821 24.0235 2.9792 23.9039 3.18644L22.9072 4.91264L22.9531 4.98917L24.3041 5.76912L24.4083 5.77928L25.4049 4.05307C25.5246 3.84583 25.4536 3.5808 25.2463 3.46116Z" fill="#9C9C9C"/>
<path d="M18.2358 15.5749L17.5103 15.156L17.2968 16.199C17.2801 16.2806 17.3769 16.3365 17.4392 16.2812L18.2358 15.5749Z" fill="#5A5A5A"/>
<path d="M22.9067 4.9126L24.4077 5.77923L19.2946 14.6352L17.7936 13.7686L22.9067 4.9126Z" fill="#FAC600"/>
<path d="M24.2388 4.14072C24.3584 3.93348 24.6234 3.86244 24.8307 3.98213L25.2921 4.24853L25.4049 4.05307C25.5245 3.84583 25.4536 3.5808 25.2463 3.46116L24.4958 3.02785C24.2885 2.90821 24.0235 2.9792 23.9039 3.18644L22.9072 4.91264L22.9531 4.98917L23.55 5.33372L24.2388 4.14072Z" fill="#838383"/>
<path d="M23.2419 5.86693L24.0786 6.34996L24.4081 5.77923L22.9071 4.9126L17.7939 13.7688L18.4583 14.1524L23.2419 5.86693Z" fill="#E8B800"/>
<path d="M20.1479 25.4227C22.5827 25.4227 24.5565 23.4489 24.5565 21.0141C24.5565 18.5793 22.5827 16.6055 20.1479 16.6055C17.7131 16.6055 15.7393 18.5793 15.7393 21.0141C15.7393 23.4489 17.7131 25.4227 20.1479 25.4227Z" fill="#0182FC"/>
<path d="M17.7226 21.0141C17.7226 18.9203 19.1823 17.1674 21.1396 16.7175C20.8208 16.6442 20.4889 16.6055 20.1479 16.6055C17.7131 16.6055 15.7393 18.5793 15.7393 21.0141C15.7393 23.4489 17.7131 25.4227 20.1479 25.4227C20.4889 25.4227 20.8208 25.384 21.1396 25.3107C19.1823 24.8608 17.7226 23.108 17.7226 21.0141Z" fill="#0172FB"/>
<path d="M20.0218 22.824C19.8083 22.824 19.5948 22.7426 19.4319 22.5797L18.0002 21.1482C17.6744 20.8224 17.6744 20.2941 18.0002 19.9683C18.3261 19.6424 18.8544 19.6425 19.1801 19.9682L20.0217 20.8098L21.3316 19.5C21.6575 19.1743 22.1858 19.1742 22.5115 19.5001C22.8373 19.826 22.8373 20.3543 22.5115 20.68L20.6116 22.5797C20.4489 22.7426 20.2353 22.824 20.0218 22.824Z" fill="#0172FB"/>
<path d="M20.2659 22.5683C20.0525 22.5683 19.839 22.4869 19.676 22.3241L18.2444 20.8925C17.9185 20.5667 17.9185 20.0384 18.2444 19.7127C18.5702 19.3867 19.0985 19.3868 19.4243 19.7126L20.2658 20.5541L21.5757 19.2443C21.9016 18.9186 22.4299 18.9185 22.7556 19.2444C23.0815 19.5703 23.0815 20.0986 22.7556 20.4243L20.8558 22.3241C20.693 22.4869 20.4794 22.5683 20.2659 22.5683Z" fill="white"/>
</g>
<defs>
<clipPath id="clip0_299_3399">
<rect width="26" height="26" fill="white"/>
</clipPath>
</defs>
</svg>
