<svg width="26" height="26" viewBox="0 0 26 26" fill="none" xmlns="http://www.w3.org/2000/svg">
<g clip-path="url(#clip0_299_3540)">
<path d="M13 0C6.0978 0 0.502441 5.59536 0.502441 12.4976L7.55618 17.146L25.4776 13.2094C25.4909 12.9738 25.4976 12.7365 25.4976 12.4976C25.4976 5.59536 19.9023 0 13 0Z" fill="#9BD069"/>
<path d="M17.2774 13.2094C15.8352 13.2094 14.694 11.9708 14.8334 10.5354C14.8346 10.523 14.8357 10.5106 14.8368 10.4984C14.8747 10.0731 15.0937 9.68787 15.4311 9.42606C15.6534 9.25354 15.7965 8.98374 15.7965 8.68046C15.7569 8.44297 15.9694 7.72047 15.3143 7.35279C14.8146 7.0723 14.7288 6.44591 14.9966 6.04363C15.0225 6.00466 15.0383 5.96492 15.0432 5.92452H15.0462C15.0462 5.90519 15.0456 5.88596 15.0447 5.86683H15.0462V3.83787C15.0462 2.61515 14.055 1.62397 12.8323 1.62397L11.6506 1.59492C11.5549 1.59258 11.4685 1.54527 11.4052 1.47348C11.3103 1.36598 11.0882 1.29053 10.8293 1.29053C10.5705 1.29053 10.3483 1.36598 10.2534 1.47348C10.1901 1.54527 10.1037 1.59258 10.008 1.59492L8.82636 1.62397C7.60364 1.62397 6.61246 2.61515 6.61246 3.83787V5.86688H6.61394C6.61302 5.88601 6.61246 5.90524 6.61246 5.92458H6.61546C6.62513 6.00532 6.67804 6.08357 6.76855 6.1582V6.85908V6.85918V8.89231V10.1224C6.76855 11.0903 7.10663 11.9776 7.67008 12.6743C8.07221 13.1716 8.0422 13.8904 7.60939 14.3611C7.60048 14.3708 7.59158 14.3804 7.58268 14.3901C6.95211 15.0753 5.83008 14.8926 5.44286 14.0457C5.09781 13.2911 4.83076 12.5051 4.64343 11.701C4.09595 9.35061 0.565162 9.5472 0.505992 12.2165V12.217C0.437868 15.2986 1.51035 18.1399 3.31962 20.3566C5.54934 23.0885 8.89738 24.1519 12.6093 24.2684C12.5913 24.2679 12.6273 24.269 12.6093 24.2684C19.4 24.4518 25.1004 19.9057 25.4769 13.2094H17.2774Z" fill="#69B76B"/>
<path d="M20.0533 25.4261H18.9052C18.6334 25.4261 18.4131 25.2058 18.4131 24.934C18.4131 24.6622 18.6334 24.4419 18.9052 24.4419H20.0533C20.3251 24.4419 20.5454 24.6622 20.5454 24.934C20.5454 25.2058 20.3251 25.4261 20.0533 25.4261Z" fill="#FFBE82"/>
<path d="M16.81 22.5095C16.7329 22.0349 17.2908 19.1207 14.8386 16.6516V16.6539C14.4638 16.2764 14.0648 15.9552 13.5975 15.6646C13.5975 15.6642 13.5975 15.6639 13.5975 15.6635C13.5923 15.6603 13.4776 15.5908 13.4723 15.5876V15.5886C12.4611 14.9904 11.2819 14.646 10.0219 14.646C9.89937 14.646 9.77757 14.6493 9.65663 14.6558C8.70387 14.7067 7.81042 15.1348 7.16719 15.8395C7.15941 15.8481 7.15162 15.8566 7.14379 15.8651C6.5292 16.538 6.18848 17.4165 6.18848 18.3278V22.9444C7.91971 24.083 9.92521 24.796 12.062 24.9593C12.4731 24.9906 16.223 23.0026 16.81 22.5095Z" fill="#2490A9"/>
<path d="M10.022 14.646C8.77851 14.646 7.61374 14.9812 6.61142 15.5649V15.5641C6.60593 15.5673 6.51623 15.6202 6.51007 15.624V15.6253C4.84117 16.6366 3.64089 18.348 3.32031 20.3563C4.60179 21.9264 6.25228 23.1837 8.12948 23.9909C6.52493 22.5678 6.0356 20.1514 7.16862 18.194C7.66045 17.3443 8.38101 16.5523 9.4335 15.988V15.9867C9.4397 15.983 9.5294 15.93 9.53484 15.9268V15.9276C10.3619 15.446 11.2999 15.1341 12.3011 15.0396C11.5888 14.7852 10.8218 14.646 10.022 14.646Z" fill="#096B82"/>
<path d="M10.0221 13.4482C8.32744 13.4482 6.95361 14.8221 6.95361 16.5167C6.95361 17.6447 7.56266 18.6299 8.46943 19.1631L10.04 17.5925L11.5975 19.15C12.4918 18.6138 13.0906 17.6353 13.0906 16.5167C13.0906 14.8221 11.7168 13.4482 10.0221 13.4482Z" fill="#096B82"/>
<path d="M10.0221 12.9563C8.32744 12.9563 6.95361 14.3301 6.95361 16.0248C6.95361 17.1528 7.56266 18.1379 8.46943 18.6711L10.04 17.1006L11.5975 18.658C12.4918 18.1219 13.0906 17.1434 13.0906 16.0248C13.0906 14.3301 11.7168 12.9563 10.0221 12.9563Z" fill="white"/>
<path d="M10.0811 17.0394H10.0026C9.24178 17.0394 8.625 16.4226 8.625 15.6618V12.449H11.4587V15.6618C11.4587 16.4226 10.842 17.0394 10.0811 17.0394Z" fill="#FF965A"/>
<path d="M13.8856 7.47784C13.8856 6.18481 13.0561 5.00244 11.7631 5.00244H8.3208C7.84495 5.00244 7.42074 5.16296 7.07422 5.42981V12.3243C7.07422 13.3302 7.70015 14.2319 8.64463 14.578C9.08029 14.7376 9.55089 14.8248 10.0419 14.8248C12.2635 14.8248 14.0644 13.0239 14.0644 10.8023V9.53235L13.8856 7.47784Z" fill="#FFBE82"/>
<path d="M6.52921 5.97119C6.18636 6.37841 5.97949 6.90386 5.97949 7.47785V10.7624C5.97949 12.5056 7.07609 13.9876 8.61088 14.5656C8.89742 14.6735 9.11008 14.2905 8.8703 14.1002C7.93331 13.356 7.33251 12.207 7.33251 10.9175V9.13216C7.33251 8.36743 7.98439 7.76948 8.74703 7.8261C9.1544 7.85637 9.58888 7.87271 10.0403 7.87271C11.6294 7.87271 13.0119 7.67057 13.7303 7.37223V5.97119H6.52921Z" fill="#FF965A"/>
<path d="M14.0906 10.2638H14.0645V7.8728H14.0906C14.597 7.8728 15.0076 8.28338 15.0076 8.7898V9.34675C15.0076 9.85318 14.597 10.2638 14.0906 10.2638Z" fill="#FF965A"/>
<path d="M5.95362 10.2638H5.97977V7.8728H5.95362C5.4472 7.8728 5.03662 8.28338 5.03662 8.7898V9.34675C5.03662 9.85318 5.44714 10.2638 5.95362 10.2638Z" fill="#FF965A"/>
<path d="M8.63873 9.91788C8.4537 9.91788 8.30371 9.76784 8.30371 9.58285V8.66657C8.30371 8.48153 8.45375 8.33154 8.63873 8.33154C8.82377 8.33154 8.97376 8.48158 8.97376 8.66657V9.58285C8.97381 9.76784 8.82377 9.91788 8.63873 9.91788Z" fill="#FF965A"/>
<path d="M11.3751 9.91788C11.19 9.91788 11.04 9.76784 11.04 9.58285V8.66657C11.04 8.48153 11.1901 8.33154 11.3751 8.33154C11.5601 8.33154 11.7101 8.48158 11.7101 8.66657V9.58285C11.7101 9.76784 11.5601 9.91788 11.3751 9.91788Z" fill="#FF965A"/>
<path d="M8.63873 9.64932C8.4537 9.64932 8.30371 9.49929 8.30371 9.3143V8.39801C8.30371 8.21297 8.45375 8.06299 8.63873 8.06299C8.82377 8.06299 8.97376 8.21302 8.97376 8.39801V9.3143C8.97381 9.49929 8.82377 9.64932 8.63873 9.64932Z" fill="#373C41"/>
<path d="M11.3751 9.64932C11.19 9.64932 11.04 9.49929 11.04 9.3143V8.39801C11.04 8.21297 11.1901 8.06299 11.3751 8.06299C11.5601 8.06299 11.7101 8.21302 11.7101 8.39801V9.3143C11.7101 9.49929 11.5601 9.64932 11.3751 9.64932Z" fill="#373C41"/>
<path d="M9.08012 7.89563H8.10309C7.91805 7.89563 7.76807 7.74565 7.76807 7.56061C7.76807 7.37557 7.91805 7.22559 8.10309 7.22559H9.08012C9.26516 7.22559 9.41515 7.37557 9.41515 7.56061C9.41515 7.74565 9.26516 7.89563 9.08012 7.89563Z" fill="#783C28"/>
<path d="M11.8721 7.89563H10.8951C10.71 7.89563 10.5601 7.74565 10.5601 7.56061C10.5601 7.37557 10.71 7.22559 10.8951 7.22559H11.8721C12.0572 7.22559 12.2071 7.37557 12.2071 7.56061C12.2071 7.74565 12.0572 7.89563 11.8721 7.89563Z" fill="#783C28"/>
<path d="M11.2754 11.5029H8.80822C8.70585 11.5029 8.62404 11.5923 8.63773 11.6938C8.66388 11.8879 8.72931 12.0695 8.82577 12.2304L10.6654 12.7756C11.0809 12.5716 11.3819 12.1703 11.446 11.6938C11.4596 11.5923 11.3778 11.5029 11.2754 11.5029Z" fill="#CD2846"/>
<path d="M9.49931 10.1249C9.41602 10.4575 9.56738 10.8198 9.85682 10.929C9.91507 10.951 9.97739 10.9629 10.0421 10.9629C10.1069 10.9629 10.1692 10.951 10.2275 10.929C10.5169 10.8198 10.6682 10.4575 10.585 10.1249L10.3089 9.0224C10.2394 8.74481 9.84486 8.74481 9.77536 9.0224L9.49931 10.1249Z" fill="#FF965A"/>
<path d="M12.1046 5.5558C12.2284 5.33082 12.51 5.245 12.7422 5.35463C12.7457 5.35626 12.7491 5.35789 12.7526 5.35957C13.0044 5.4801 13.2058 5.67353 13.34 5.90675H13.6222C13.8663 5.90675 14.0642 5.70889 14.0642 5.46478V4.57963C14.0642 3.57914 13.2531 2.76807 12.2526 2.76807H7.79081C7.49013 2.76847 7.24414 3.01487 7.24414 3.31555V5.39757C7.27431 5.38129 7.30479 5.36527 7.33699 5.35107C7.73017 5.17748 8.13876 5.56165 8.00821 5.97111C8.00754 5.97314 8.00688 5.97523 8.00627 5.97726C7.91541 6.26568 8.13148 6.55924 8.43389 6.55924H10.4082C11.866 6.55924 12.0223 5.70538 12.1046 5.5558Z" fill="#783C28"/>
<path d="M7.32126 4.57963C7.32126 3.57914 8.13234 2.76807 9.13283 2.76807H7.79106C6.79057 2.76807 5.97949 3.57914 5.97949 4.57963V7.49909V7.49919V9.53232C6.27707 9.53232 6.51828 9.29111 6.51828 8.99354V6.61449C6.51828 6.08899 6.81397 5.60469 7.28651 5.37483C7.29811 5.36919 7.30966 5.36369 7.32121 5.35835L7.32126 4.57963Z" fill="#5A2D19"/>
<path d="M13.4416 5.5651C13.3937 5.65098 13.3387 5.73228 13.2788 5.80946C13.4367 6.03775 13.5258 6.31355 13.5258 6.60151V8.99358C13.5258 9.29116 13.767 9.53236 14.0645 9.53236V7.47786V5.34649C13.8342 5.24992 13.5643 5.34491 13.4416 5.5651Z" fill="#5A2D19"/>
<path d="M9.77621 6.55927C9.47456 6.55927 9.25757 6.26662 9.34803 5.97882C9.34961 5.97373 9.35123 5.96864 9.35291 5.96355C9.48646 5.55064 9.05788 5.17491 8.66435 5.35781C8.65244 5.36336 8.64049 5.36901 8.62853 5.37486C8.34688 5.51187 8.12882 5.73959 7.99797 6.01224C7.93356 6.28881 8.14444 6.55927 8.43444 6.55927H10.4087H9.77621Z" fill="#A55A3C"/>
<path d="M8.43065 9.00699H8.42378C8.35744 9.00699 8.30371 8.95321 8.30371 8.88692V8.50606C8.30371 8.43971 8.35749 8.38599 8.42378 8.38599H8.43065C8.49699 8.38599 8.55072 8.43976 8.55072 8.50606V8.88692C8.55072 8.95321 8.49699 9.00699 8.43065 9.00699Z" fill="white"/>
<path d="M11.1606 9.00699H11.1538C11.0874 9.00699 11.0337 8.95321 11.0337 8.88692V8.50606C11.0337 8.43971 11.0875 8.38599 11.1538 8.38599H11.1606C11.227 8.38599 11.2807 8.43976 11.2807 8.50606V8.88692C11.2807 8.95321 11.2269 9.00699 11.1606 9.00699Z" fill="white"/>
<path d="M8.82617 12.2303C9.07374 12.6433 9.52557 12.9198 10.0421 12.9198C10.2659 12.9198 10.4774 12.8677 10.6656 12.7754C10.5847 12.268 10.1453 11.8801 9.61506 11.8801C9.30212 11.8802 9.02083 12.0153 8.82617 12.2303Z" fill="#F5415F"/>
<path d="M10.6961 11.8802H9.34757C9.21819 11.8802 9.11328 11.7753 9.11328 11.6459V11.5029H10.9303V11.6459C10.9303 11.7753 10.8254 11.8802 10.6961 11.8802Z" fill="white"/>
<path d="M25.2879 23.9156V14.8601C25.2879 14.3019 24.8354 13.8494 24.2771 13.8494H20.9772L18.4928 14.7442L16.0711 13.8494H13.7207V23.9156H25.2879Z" fill="#ECD833"/>
<path d="M20.6033 13.8467V15.4902C20.6287 15.7985 20.442 16.1279 20.0436 16.1279H16.3936C16.407 16.1872 16.4359 16.2423 16.4785 16.2869L16.7143 16.5337C16.8475 16.6732 17.0702 16.6732 17.2034 16.5337L17.2883 16.4448C17.4215 16.3054 17.6442 16.3054 17.7773 16.4448L17.8624 16.5338C17.9956 16.6732 18.2182 16.6732 18.3514 16.5338L18.4363 16.4448C18.5695 16.3054 18.7921 16.3054 18.9253 16.4448L19.0104 16.5338C19.1436 16.6732 19.3662 16.6732 19.4994 16.5338L19.5846 16.4447C19.7178 16.3053 19.9404 16.3053 20.0736 16.4447L20.1588 16.5339C20.292 16.6732 20.5146 16.6732 20.6478 16.5339L20.8839 16.2869C20.944 16.2239 20.9776 16.1402 20.9776 16.0532V13.8467L20.6033 13.8467Z" fill="#ECC32E"/>
<path d="M20.5874 16.2699C20.6367 16.2096 20.6641 16.1342 20.6641 16.0558V13.8494H17.1289V16.2699H20.5874V16.2699Z" fill="white"/>
<path d="M20.4328 16.0332L20.3477 16.1223C20.2145 16.2617 19.9918 16.2617 19.8586 16.1223L19.7736 16.0333C19.6404 15.8939 19.4178 15.8939 19.2846 16.0333L19.1996 16.1221C19.0664 16.2616 18.8438 16.2616 18.7106 16.1222L18.6256 16.0332C18.4924 15.8938 18.2698 15.8938 18.1366 16.0332L18.0516 16.1221C17.9184 16.2615 17.6958 16.2615 17.5626 16.1221L17.4972 16.0537C17.3277 15.8763 17.2331 15.6403 17.2331 15.3949V13.8491H16.0713V16.0556C16.0713 16.1426 16.1048 16.2263 16.165 16.2893L16.4008 16.5361C16.534 16.6755 16.7566 16.6755 16.8898 16.5361L16.9748 16.4472C17.108 16.3078 17.3306 16.3077 17.4638 16.4472L17.5488 16.5362C17.682 16.6756 17.9046 16.6756 18.0378 16.5361L18.1227 16.4472C18.2559 16.3078 18.4786 16.3078 18.6118 16.4472L18.6968 16.5362C18.83 16.6756 19.0526 16.6756 19.1858 16.5362L19.271 16.4471C19.4042 16.3077 19.6268 16.3077 19.76 16.4471L19.8453 16.5363C19.9785 16.6756 20.201 16.6756 20.3342 16.5363L20.5703 16.2893C20.6304 16.2264 20.664 16.1427 20.664 16.0556V15.9292C20.5795 15.9326 20.4961 15.967 20.4328 16.0332Z" fill="#D0FBFD"/>
<path d="M17.3045 21.5712H17.4659V23.1266C17.4659 23.1751 17.5053 23.2144 17.5538 23.2144H17.9301C17.9786 23.2144 18.018 23.1751 18.018 23.1266V21.5712H18.2254C18.3174 21.5712 18.3665 21.4628 18.3058 21.3937L17.8453 20.8689C17.8027 20.8204 17.7271 20.8204 17.6845 20.8689L17.224 21.3937C17.1634 21.4628 17.2125 21.5712 17.3045 21.5712Z" fill="#ECC32E"/>
<path d="M18.6003 21.5712H18.7618V23.1266C18.7618 23.1751 18.8011 23.2144 18.8497 23.2144H19.226C19.2745 23.2144 19.3138 23.1751 19.3138 23.1266V21.5712H19.5213C19.6133 21.5712 19.6624 21.4628 19.6017 21.3937L19.1412 20.8689C19.0986 20.8204 19.023 20.8204 18.9804 20.8689L18.5199 21.3937C18.4593 21.4628 18.5084 21.5712 18.6003 21.5712Z" fill="#ECC32E"/>
<path d="M18.0968 21.3937L17.6363 20.8689C17.5938 20.8204 17.5182 20.8204 17.4755 20.8689L17.015 21.3937C16.9544 21.4628 17.0035 21.5712 17.0954 21.5712H17.2569V23.1266C17.2569 23.1751 17.2962 23.2144 17.3448 23.2144H17.7211C17.7696 23.2144 17.8089 23.1751 17.8089 23.1266V21.5712H18.0164C18.1084 21.5712 18.1575 21.4628 18.0968 21.3937Z" fill="#9D66D5"/>
<path d="M19.3927 21.3937L18.9322 20.8689C18.8897 20.8204 18.8141 20.8204 18.7714 20.8689L18.3109 21.3937C18.2503 21.4628 18.2994 21.5712 18.3913 21.5712H18.5528V23.1266C18.5528 23.1751 18.5921 23.2144 18.6407 23.2144H19.017C19.0655 23.2144 19.1048 23.1751 19.1048 23.1266V21.5712H19.3123C19.4043 21.5712 19.4534 21.4628 19.3927 21.3937Z" fill="#9D66D5"/>
<path d="M16.9408 17.1948V20.4511H17.3906C17.5974 20.4511 17.7651 20.2835 17.7651 20.0767V17.5207C17.7651 17.3139 17.5975 17.1462 17.3907 17.1462H16.9385C16.9395 17.1621 16.9408 17.178 16.9408 17.1948Z" fill="#ECC32E"/>
<path d="M24.4943 23.6904C24.3899 23.6904 24.2862 23.6502 24.2194 23.5699C24.1854 23.529 24.1327 23.504 24.077 23.504H23.7814V22.9269C23.7814 22.8017 23.8463 22.6878 23.949 22.6162C24.1039 22.5082 24.2053 22.3287 24.2053 22.1256V20.986C24.2053 20.9013 24.1366 20.8326 24.0519 20.8326H23.9604L24.0374 21.2381C24.0418 21.2617 24.0382 21.2862 24.0269 21.3074L23.8467 21.6477C23.8405 21.6595 23.8365 21.6724 23.8351 21.6856L23.8135 21.8797C23.8074 21.9344 23.7329 21.9457 23.7109 21.8953L23.6327 21.7163C23.6163 21.6787 23.6144 21.6364 23.6274 21.5975L23.7357 21.2726C23.7419 21.2538 23.7428 21.2337 23.7381 21.2144L23.6465 20.8326H23.1626C23.0779 20.8326 23.0092 20.9013 23.0092 20.986V22.1256C23.0092 22.3953 23.1878 22.6231 23.4331 22.6976V23.5039H23.1375C23.082 23.5039 23.0293 23.5288 22.9952 23.5697C22.9281 23.6501 22.8243 23.6903 22.7195 23.6903H21.9832C21.7327 23.6903 21.5283 23.4859 21.533 23.2355C21.5331 23.2313 21.5332 23.227 21.5332 23.2228V22.5779C21.5332 22.319 21.7431 22.109 22.002 22.109H22.3942C22.5344 22.109 22.6368 21.9794 22.6077 21.8423C22.485 21.2653 21.9726 20.8326 21.3591 20.8326C20.7456 20.8326 20.2332 21.2654 20.1105 21.8423C20.0814 21.9794 20.1838 22.109 20.3239 22.109H21.185V23.2151C21.185 23.3268 21.1049 23.4265 20.9942 23.4407C20.8602 23.4579 20.7455 23.3535 20.7455 23.2228V23.03C20.7455 22.9391 20.679 22.8579 20.5885 22.8492C20.4846 22.8393 20.3973 22.9207 20.3973 23.0225V23.2228C20.3973 23.2428 20.3983 23.2625 20.4003 23.2819C20.4184 23.4554 20.3121 23.6228 20.1453 23.6739C20.002 23.7178 19.8531 23.6711 19.7598 23.5638C19.7275 23.5266 19.6799 23.5039 19.6284 23.5039H17.1974C17.1013 23.5039 17.0233 23.5819 17.0233 23.678C17.0233 23.6822 17.0243 23.6862 17.0246 23.6903H14.5085C14.137 23.6903 13.8359 23.3892 13.8359 23.0177V21.2477C13.8359 20.8078 14.1926 20.4511 14.6326 20.4511H14.6485V17.1615C14.6485 17.1562 14.6491 17.1514 14.6492 17.1461H14.6326C14.1926 17.1461 13.8359 16.7894 13.8359 16.3494V13.8494H12.1199C11.7484 13.8494 11.4473 14.1505 11.4473 14.522V24.288C11.4473 24.6594 11.7484 24.9606 12.1199 24.9606H24.6156C24.987 24.9606 25.2882 24.6594 25.2882 24.288V23.6904H24.4943V23.6904Z" fill="#ECC32E"/>
<path d="M22.3986 21.8423C22.2759 21.2653 21.7635 20.8325 21.15 20.8325C20.5365 20.8325 20.0241 21.2653 19.9015 21.8423C19.8723 21.9793 19.9747 22.109 20.1148 22.109H20.9759V23.2228C20.9759 23.3439 20.8773 23.4425 20.7561 23.4425C20.635 23.4425 20.5364 23.3439 20.5364 23.2228V23.0225C20.5364 22.9263 20.4584 22.8484 20.3623 22.8484C20.2661 22.8484 20.1882 22.9263 20.1882 23.0225V23.2228C20.1882 23.536 20.4429 23.7907 20.7561 23.7907C21.0693 23.7907 21.3241 23.536 21.3241 23.2228V22.109H22.1852C22.3253 22.1091 22.4277 21.9794 22.3986 21.8423Z" fill="#ABABFF"/>
<path d="M19.4195 23.8521H16.9886C16.8924 23.8521 16.8145 23.7742 16.8145 23.678C16.8145 23.5818 16.8924 23.5039 16.9886 23.5039H19.4195C19.5156 23.5039 19.5936 23.5818 19.5936 23.678C19.5936 23.7742 19.5156 23.8521 19.4195 23.8521Z" fill="#9D66D5"/>
<path d="M23.8682 23.5039H23.5725V22.6976C23.8179 22.623 23.9965 22.3951 23.9965 22.1255V20.9859C23.9965 20.9012 23.9278 20.8325 23.8431 20.8325H23.7515L23.8285 21.238C23.833 21.2616 23.8293 21.2861 23.8181 21.3073L23.6379 21.6477C23.6317 21.6594 23.6277 21.6723 23.6262 21.6855L23.6047 21.8797C23.5986 21.9343 23.5241 21.9456 23.502 21.8952L23.4239 21.7162C23.4075 21.6786 23.4056 21.6363 23.4185 21.5975L23.5268 21.2726C23.5331 21.2538 23.5339 21.2336 23.5293 21.2144L23.4377 20.8326H22.9538C22.8691 20.8326 22.8004 20.9013 22.8004 20.986V22.1255C22.8004 22.3952 22.979 22.6231 23.2243 22.6976V23.504H22.9287C22.8377 23.504 22.7565 23.5704 22.7479 23.661C22.738 23.7648 22.8194 23.8521 22.9212 23.8521H23.8757C23.9775 23.8521 24.0589 23.7648 24.049 23.661C24.0403 23.5704 23.9591 23.5039 23.8682 23.5039Z" fill="#8659B9"/>
<path d="M17.4283 19.9654C17.4318 19.9401 17.4342 19.9144 17.4342 19.8882V17.7087C17.4342 17.3979 17.1823 17.146 16.8715 17.146H13.688V19.9654H17.4283Z" fill="#9BD069"/>
<path d="M14.1869 19.7872C13.9801 19.7872 13.8124 19.6195 13.8124 19.4127C13.8124 19.1965 13.9878 19.0212 14.204 19.0212H15.8352C15.9262 19.0212 16.0074 18.9547 16.016 18.8642C16.0259 18.7603 15.9445 18.673 15.8427 18.673H13.9945C13.8939 18.673 13.8124 18.5915 13.8124 18.4909C13.8124 18.3903 13.8939 18.3088 13.9945 18.3088H14.8542C14.9452 18.3088 15.0264 18.2423 15.035 18.1518C15.0449 18.0479 14.9635 17.9606 14.8617 17.9606H13.9945C13.8939 17.9606 13.8124 17.8791 13.8124 17.7785V17.146H12.664C12.4572 17.146 12.2896 17.3136 12.2896 17.5204V20.0764C12.2896 20.2833 12.4572 20.4509 12.664 20.4509H17.0595C17.2663 20.4509 17.4339 20.2833 17.4339 20.0765V19.7872H14.1869Z" fill="#69B76B"/>
<path d="M14.2575 6.50682H5.82373V4.41646C5.82373 3.22762 6.78744 2.26392 7.97627 2.26392H12.1049C13.2937 2.26392 14.2575 3.22762 14.2575 4.41646V6.50682Z" fill="#3342AA"/>
<path d="M11.9922 6.55923H8.08887V4.16151C8.08887 3.11351 8.93846 2.26392 9.98646 2.26392H10.0946C11.1426 2.26392 11.9922 3.11351 11.9922 4.16151V6.55923Z" fill="white"/>
<path d="M7.02233 5.36597C6.36038 5.36597 5.82373 5.90261 5.82373 6.56457H5.82673C5.88941 7.08712 7.75129 7.5064 10.0406 7.5064C12.3299 7.5064 14.1918 7.08712 14.2544 6.56457H14.2575C14.2575 5.90261 13.7208 5.36597 13.0588 5.36597H7.02233Z" fill="#2B3890"/>
<path d="M10.0405 2.52954C10.3857 2.52954 10.6656 2.39542 10.6656 2.22998C10.6656 2.06454 10.3857 1.93042 10.0405 1.93042C9.69536 1.93042 9.41553 2.06454 9.41553 2.22998C9.41553 2.39542 9.69536 2.52954 10.0405 2.52954Z" fill="#2B3890"/>
<path d="M15.7065 25.918C15.48 25.918 15.2964 25.7345 15.2964 25.508V24.3598C15.2964 24.1333 15.48 23.9497 15.7065 23.9497C15.9329 23.9497 16.1165 24.1333 16.1165 24.3598V25.508C16.1165 25.7345 15.9329 25.918 15.7065 25.918Z" fill="#FFBE82"/>
<path d="M16.5267 26C16.255 26 16.0347 25.7797 16.0347 25.5079V24.3598C16.0347 24.088 16.255 23.8677 16.5267 23.8677C16.7985 23.8677 17.0188 24.088 17.0188 24.3598V25.5079C17.0188 25.7797 16.7985 26 16.5267 26Z" fill="#FFBE82"/>
<path d="M17.4559 26C17.1842 26 16.9639 25.7797 16.9639 25.5079V24.3598C16.9639 24.088 17.1842 23.8677 17.4559 23.8677C17.7277 23.8677 17.948 24.088 17.948 24.3598V25.5079C17.948 25.7797 17.7277 26 17.4559 26Z" fill="#FFBE82"/>
<path d="M18.3856 26C18.1139 26 17.8936 25.7797 17.8936 25.5079V24.3598C17.8936 24.088 18.1139 23.8677 18.3856 23.8677C18.6574 23.8677 18.8777 24.088 18.8777 24.3598V25.5079C18.8778 25.7797 18.6574 26 18.3856 26Z" fill="#FFBE82"/>
<path d="M18.3856 25.2152C18.1702 25.2152 17.9875 25.0765 17.9209 24.8837C17.8542 25.0765 17.6716 25.2152 17.4561 25.2152C17.2406 25.2152 17.058 25.0765 16.9913 24.8837C16.9247 25.0765 16.742 25.2152 16.5266 25.2152C16.3209 25.2152 16.1449 25.0889 16.0713 24.9097C16.0034 25.0423 15.8657 25.1332 15.7065 25.1332C15.4799 25.1332 15.2964 24.9496 15.2964 24.7231V25.5081C15.2964 25.7346 15.48 25.9181 15.7065 25.9181C15.8657 25.9181 16.0034 25.8272 16.0713 25.6946C16.1449 25.8738 16.3209 26.0001 16.5266 26.0001C16.742 26.0001 16.9247 25.8615 16.9913 25.6686C17.058 25.8615 17.2406 26.0001 17.4561 26.0001C17.6716 26.0001 17.8542 25.8615 17.9209 25.6686C17.9875 25.8615 18.1702 26.0001 18.3856 26.0001C18.6574 26.0001 18.8777 25.7799 18.8777 25.5081V24.7231C18.8777 24.9949 18.6574 25.2152 18.3856 25.2152Z" fill="#FF965A"/>
</g>
<defs>
<clipPath id="clip0_299_3540">
<rect width="26" height="26" fill="white"/>
</clipPath>
</defs>
</svg>
