<svg width="26" height="26" viewBox="0 0 26 26" fill="none" xmlns="http://www.w3.org/2000/svg">
<path d="M13 0.0510254C7.99721 0.0510254 4.9155 2.87289 4.90698 2.87763C4.90698 2.87763 4.77887 3.03756 4.75491 3.14385C4.56026 4.00787 4.37842 5.16589 4.37842 6.01089C4.37842 13.1906 10.433 19.0095 17.6127 19.0095C20.3774 19.0095 23.4534 17.6844 25.5121 16.0912C25.5581 16.0556 25.7042 15.8161 25.7042 15.8161C25.7133 15.7607 25.9999 14.6192 25.9999 13.051C26 5.8713 20.1797 0.0510254 13 0.0510254Z" fill="#FEF056"/>
<path d="M17.6116 18.6426C10.4319 18.6426 4.61164 12.8223 4.61164 5.64256C4.61164 4.69356 4.71395 3.76887 4.90707 2.87769C1.91732 5.25949 0 8.93145 0 13.0511C0 16.1583 1.09016 19.011 2.90884 21.2474L23.0912 21.2477C24.3509 19.6992 25.2635 17.851 25.7043 15.8162C23.4836 17.585 20.6713 18.6426 17.6116 18.6426Z" fill="#FBDE4C"/>
<path d="M21.8327 0H9.84773L8.79932 20.8307L9.84773 25.6662C10.4943 25.8272 11.1599 25.9398 11.8407 26H14.1562C16.0612 25.8314 17.8549 25.2503 19.4424 24.343L19.609 24.0204L20.1099 23.9345C21.2358 23.198 22.2422 22.2908 23.091 21.2475V1.2583C23.0909 0.563333 22.5276 0 21.8327 0Z" fill="#26A4C0"/>
<path d="M4.16694 0C3.47202 0 2.90869 0.563333 2.90869 1.2583V21.2473C3.59168 22.0872 4.37744 22.8401 5.24675 23.487L9.84773 21.6048V20.143L9.20339 16.2134L9.84773 15.542V14.0802L9.39421 10.1407L9.84773 9.47924V0L4.16694 0Z" fill="#2490A9"/>
<path d="M12.6456 7.14778C11.7933 7.11939 11.0972 6.67897 11.0972 6.22438C11.0972 5.98288 11.3103 5.6277 11.5802 5.6277C11.8785 5.6277 12.12 6.04681 12.6456 6.13914V4.98846C11.9922 4.73983 11.225 4.4344 11.225 3.52522C11.225 2.62312 11.8927 2.18984 12.6456 2.08329V1.88442C12.6456 1.78495 12.7593 1.69263 12.9155 1.69263C13.0505 1.69263 13.1855 1.78495 13.1855 1.88442V2.06198C13.6258 2.0762 14.4569 2.18984 14.4569 2.67996C14.4569 2.87175 14.329 3.26242 14.0165 3.26242C13.782 3.26242 13.6471 3.03514 13.1854 2.99961V4.03665C13.8318 4.27815 14.5847 4.61202 14.5847 5.57091C14.5847 6.45165 14.0165 6.98439 13.1854 7.11939V7.3254C13.1854 7.42481 13.0505 7.51719 12.9155 7.51719C12.7592 7.51719 12.6456 7.42481 12.6456 7.3254L12.6456 7.14778ZM12.7166 3.86618V3.02092C12.397 3.08485 12.262 3.24819 12.262 3.41872C12.262 3.62468 12.4467 3.75254 12.7166 3.86618ZM13.1144 5.18025V6.13205C13.3559 6.07521 13.5477 5.94026 13.5477 5.68454C13.5477 5.45014 13.3701 5.30097 13.1144 5.18025Z" fill="#FBDE4C"/>
<path d="M15.8579 3.92212H18.6801V5.04369H15.8579V3.92212Z" fill="#FBDE4C"/>
<path d="M7.02197 3.92212H9.84415V5.04369H7.02197V3.92212Z" fill="#FFC344"/>
<path d="M5.24658 9.47925H9.84756V14.0802H5.24658V9.47925Z" fill="white"/>
<path d="M11.646 11.3464H19.9831V12.2131H11.646V11.3464Z" fill="white"/>
<path d="M5.24658 15.542H9.84756V20.143H5.24658V15.542Z" fill="white"/>
<path d="M11.7095 17.4092H20.0466V18.2758H11.7095V17.4092Z" fill="white"/>
<path d="M5.24658 23.4871C6.60139 24.4953 8.15919 25.2458 9.84756 25.6663V21.605H5.24658V23.4871Z" fill="white"/>
<path d="M20.11 23.9344V23.4719H11.7729V24.3386H19.4502C19.6743 24.2103 19.8943 24.0755 20.11 23.9344Z" fill="white"/>
<path d="M8.55909 13.682L6.22607 11.3491L7.30752 10.2676L8.55909 11.5192L10.7865 9.29175L11.868 10.3732L8.55909 13.682Z" fill="#46DC00"/>
<path d="M8.55909 19.9106L6.22607 17.5776L7.30752 16.4961L8.55909 17.7477L10.7865 15.5203L11.868 16.6017L8.55909 19.9106Z" fill="#46DC00"/>
</svg>
